<svg width="80" height="24" viewBox="0 0 80 24" fill="none" xmlns="http://www.w3.org/2000/svg">
<g clip-path="url(#clip0)">
<path d="M0.00425263 11.5954C0.00425263 9.48334 -0.0066341 7.3735 0.00642997 5.26147C0.0216714 3.05365 1.06026 1.42064 3.04383 0.538814C5.13843 -0.39309 7.17643 -0.133986 8.93572 1.42935C9.66731 2.0782 10.3554 2.78148 11.0107 3.50871C11.4571 4.00515 11.7619 3.94636 12.1821 3.48476C12.7983 2.80543 13.4646 2.16964 14.1222 1.53168C17.0616 -1.32499 22.0542 0.0576201 23.021 4.03781C23.4695 5.88419 23.1189 7.62825 21.732 9.05005C21.0483 9.75116 20.369 10.4588 19.6504 11.1207C19.228 11.5105 19.2498 11.7804 19.6591 12.1593C20.3559 12.8038 21.0222 13.481 21.6732 14.169C23.746 16.3594 23.7047 19.6929 21.5905 21.7636C19.4675 23.8429 16.1819 23.7907 14.0068 21.6395C13.4406 21.0799 12.8375 20.5508 12.3324 19.9411C11.7619 19.2553 11.3352 19.3467 10.7995 19.9738C10.2835 20.5769 9.68908 21.1104 9.1208 21.6699C7.46819 23.2986 5.32351 23.721 3.20713 22.837C1.19308 21.9922 0.00425263 20.1393 0.00425263 17.8378C0.00425263 15.7563 0.00425263 13.6747 0.00425263 11.5954ZM2.19031 11.5954C2.19031 13.7379 2.19248 15.8804 2.18813 18.0229C2.18595 19.3816 2.91101 20.296 4.06718 20.8208C5.28431 21.3738 6.46008 21.1735 7.44642 20.2177C8.12793 19.5579 8.76371 18.8459 9.47135 18.2167C9.97214 17.7703 9.89593 17.4894 9.44958 17.0561C7.93197 15.5886 6.44702 14.0863 4.96424 12.5817C4.26314 11.8697 4.26096 11.4146 4.95336 10.707C6.00066 9.63358 7.05667 8.56668 8.13446 7.52373C9.44304 6.25652 8.83556 6.36756 10.2704 7.5368C10.6645 7.85687 10.6907 8.11597 10.2944 8.4883C9.3603 9.37012 8.48066 10.3107 7.55311 11.2013C7.22215 11.5192 7.18731 11.7173 7.53787 12.0635C10.2334 14.7329 12.8963 17.435 15.5962 20.0979C16.9854 21.4674 18.7621 21.4544 20.0728 20.1349C21.3531 18.8481 21.3313 16.9843 20.0097 15.6322C19.3674 14.9746 18.6968 14.3475 18.0697 13.6769C17.7104 13.2915 17.4426 13.3133 17.0899 13.6813C16.2625 14.5413 15.3545 15.3295 14.5816 16.2331C13.9523 16.9691 13.6148 16.49 13.2164 16.0611C12.831 15.6474 12.2279 15.3665 12.9899 14.6371C15.3937 12.3335 17.7213 9.9493 20.0685 7.58688C21.192 6.45684 21.3292 4.826 20.4277 3.57185C19.2759 1.96933 17.0333 1.77337 15.6136 3.15598C14.9561 3.79612 14.3377 4.48198 13.654 5.09164C13.1837 5.50969 13.2447 5.78621 13.6714 6.18031C14.4139 6.864 15.1063 7.59994 15.8205 8.31629C16.7437 9.24166 16.7088 9.209 15.8553 10.1692C15.3219 10.7723 15.0083 10.6613 14.4945 10.1344C12.23 7.81332 9.92206 5.53364 7.62496 3.2409C6.67346 2.29158 5.15585 1.9628 3.99097 2.51584C2.78037 3.09066 2.16418 4.06393 2.1816 5.44437C2.2099 7.49325 2.19031 9.54431 2.19031 11.5954Z" fill="#30455C"/>
<path d="M40.1219 17.1703C40.05 17.8387 39.8563 18.3482 39.5362 18.7031C39.2161 19.058 38.7523 19.2366 38.1405 19.2366C37.6854 19.2366 37.2805 19.1255 36.9256 18.9056C36.5706 18.6857 36.1874 18.3134 35.7759 17.7865L33.6661 15.1454V19.0232C33.5093 19.0515 33.2785 19.0907 32.9737 19.1408C32.6688 19.1909 32.3597 19.2148 32.0461 19.2148C31.7326 19.2148 31.4539 19.193 31.2057 19.1517C30.9575 19.1081 30.7484 19.0232 30.5764 18.8969C30.4066 18.7685 30.2738 18.5943 30.1823 18.3744C30.0887 18.1544 30.043 17.867 30.043 17.5121V5.17529C30.1997 5.13175 30.4305 5.08602 30.7354 5.03594C31.0402 4.98586 31.3494 4.96191 31.6629 4.96191C31.9743 4.96191 32.2552 4.98369 32.5055 5.02506C32.7538 5.0686 32.9628 5.15352 33.1348 5.27981C33.3046 5.40827 33.4375 5.58246 33.5289 5.80237C33.6203 6.02228 33.6682 6.30969 33.6682 6.6646V12.2887L37.3327 8.53929C38.0708 8.53929 38.6631 8.70259 39.1116 9.02919C39.558 9.3558 39.7822 9.76731 39.7822 10.2637C39.7822 10.4771 39.7474 10.6731 39.6755 10.8495C39.6037 11.028 39.4948 11.2087 39.3446 11.3916C39.1943 11.5767 39.0027 11.7726 38.7698 11.9773C38.5346 12.1842 38.2624 12.4215 37.9489 12.6915L36.7144 13.7562L40.1219 17.1703Z" fill="#30455C"/>
<path d="M51.6474 13.8674C51.6474 14.7492 51.5124 15.5331 51.2424 16.2211C50.9724 16.9092 50.5936 17.4883 50.1037 17.9565C49.6138 18.4246 49.0281 18.7795 48.3465 19.0212C47.665 19.2629 46.9051 19.3826 46.0669 19.3826C45.2286 19.3826 44.4687 19.2542 43.7872 18.9994C43.1057 18.7447 42.52 18.3789 42.0301 17.902C41.5402 17.4274 41.1591 16.8482 40.8913 16.1667C40.6213 15.4852 40.4863 14.7188 40.4863 13.8652C40.4863 13.027 40.6213 12.2671 40.8913 11.5856C41.1613 10.9041 41.5402 10.3249 42.0301 9.85022C42.52 9.37556 43.1057 9.00977 43.7872 8.75284C44.4687 8.49809 45.2286 8.36963 46.0669 8.36963C46.9051 8.36963 47.665 8.50027 48.3465 8.76373C49.0281 9.02719 49.6138 9.39516 50.1037 9.872C50.5936 10.3488 50.9724 10.9258 51.2424 11.6073C51.5124 12.291 51.6474 13.0444 51.6474 13.8674ZM44.1922 13.8674C44.1922 14.734 44.3598 15.3981 44.693 15.8597C45.0261 16.3213 45.492 16.5521 46.0886 16.5521C46.6852 16.5521 47.1425 16.3169 47.4625 15.8488C47.7826 15.3807 47.9416 14.7188 47.9416 13.8674C47.9416 13.0161 47.7783 12.3585 47.4517 11.8969C47.1251 11.4353 46.6635 11.2045 46.0669 11.2045C45.4703 11.2045 45.0087 11.4353 44.6821 11.8969C44.3555 12.3585 44.1922 13.0161 44.1922 13.8674Z" fill="#30455C"/>
<path d="M56.3647 15.4873C56.3647 15.8574 56.4823 16.1187 56.7153 16.2755C56.9504 16.4323 57.2792 16.5106 57.706 16.5106C57.9193 16.5106 58.1393 16.4932 58.3657 16.4584C58.5921 16.4235 58.7925 16.3778 58.9623 16.319C59.0908 16.4758 59.1996 16.65 59.2932 16.8416C59.3847 17.0332 59.4326 17.264 59.4326 17.534C59.4326 18.074 59.2301 18.5138 58.8251 18.8556C58.4201 19.1975 57.706 19.3673 56.6848 19.3673C55.435 19.3673 54.4726 19.0821 53.7976 18.516C53.1226 17.9477 52.7852 17.0245 52.7852 15.7464V6.62549C52.9419 6.58194 53.164 6.53622 53.4558 6.48614C53.7475 6.43606 54.0546 6.41211 54.3833 6.41211C55.0082 6.41211 55.4938 6.52315 55.8422 6.74307C56.1905 6.96298 56.3647 7.42893 56.3647 8.13874V8.768H59.1561C59.241 8.92477 59.3237 9.11855 59.4021 9.3537C59.4805 9.58886 59.5197 9.84796 59.5197 10.131C59.5197 10.6274 59.4086 10.9867 59.1887 11.2066C58.9688 11.4265 58.6727 11.5376 58.3047 11.5376H56.3669V15.4873H56.3647Z" fill="#30455C"/>
<path d="M64.8543 8.37158C65.6207 8.37158 66.3197 8.44997 66.9533 8.60673C67.5847 8.7635 68.1247 9.00083 68.5732 9.3209C69.0196 9.64097 69.3658 10.046 69.6075 10.5359C69.8492 11.0258 69.9689 11.6049 69.9689 12.2712V17.0439C69.9689 17.4141 69.8666 17.7146 69.6597 17.9497C69.4529 18.1849 69.209 18.3874 68.9238 18.5572C68.0006 19.1102 66.7007 19.3889 65.0263 19.3889C64.273 19.3889 63.5958 19.3171 62.9927 19.1756C62.3896 19.034 61.8714 18.8207 61.4381 18.5376C61.0048 18.2545 60.6716 17.8909 60.4365 17.4511C60.2013 17.0113 60.0859 16.4996 60.0859 15.9183C60.0859 14.9385 60.3777 14.1851 60.9591 13.6604C61.5404 13.1356 62.4418 12.809 63.6655 12.6805L66.4569 12.3822V12.232C66.4569 11.8205 66.2761 11.5266 65.9147 11.348C65.5533 11.1716 65.0307 11.0824 64.3492 11.0824C63.8092 11.0824 63.2845 11.139 62.7728 11.2522C62.2611 11.3654 61.7995 11.507 61.388 11.679C61.2029 11.5505 61.0462 11.3567 60.9199 11.0933C60.7914 10.8298 60.7283 10.5576 60.7283 10.2724C60.7283 9.90225 60.8175 9.60831 60.9939 9.3884C61.1703 9.16849 61.4446 8.98124 61.8148 8.82447C62.2263 8.6677 62.7118 8.55448 63.2736 8.48263C63.8288 8.40642 64.3579 8.37158 64.8543 8.37158ZM65.0242 16.7435C65.2658 16.7435 65.5315 16.7195 65.8232 16.6694C66.115 16.6194 66.3306 16.5519 66.4721 16.4669V14.7621L64.9392 14.8906C64.5408 14.9189 64.2142 15.0038 63.9594 15.1453C63.7047 15.2868 63.5762 15.5002 63.5762 15.7854C63.5762 16.0707 63.6851 16.2993 63.9072 16.4778C64.1271 16.6542 64.4994 16.7435 65.0242 16.7435Z" fill="#30455C"/>
<path d="M79.9998 15.9553C79.9998 17.0353 79.5948 17.8801 78.7848 18.4898C77.9749 19.0994 76.7817 19.4064 75.2053 19.4064C74.6087 19.4064 74.0556 19.3629 73.544 19.278C73.0323 19.1931 72.5968 19.0602 72.2332 18.8839C71.8718 18.7075 71.5865 18.4832 71.3819 18.2132C71.175 17.9433 71.0727 17.6232 71.0727 17.2552C71.0727 16.9134 71.1445 16.626 71.2861 16.393C71.4276 16.1578 71.5974 15.964 71.7977 15.8073C72.2093 16.0337 72.6817 16.2362 73.2152 16.4148C73.7486 16.5933 74.3626 16.6804 75.0572 16.6804C75.497 16.6804 75.8345 16.6173 76.0697 16.4888C76.3048 16.3603 76.4202 16.1905 76.4202 15.9771C76.4202 15.779 76.3353 15.6222 76.1655 15.509C75.9957 15.3958 75.7104 15.3043 75.3141 15.2325L74.6762 15.104C73.4416 14.8623 72.5206 14.4835 71.9175 13.9652C71.3144 13.447 71.0117 12.7046 71.0117 11.74C71.0117 11.2153 71.1249 10.7384 71.3536 10.3117C71.58 9.8849 71.9001 9.52999 72.3116 9.24694C72.7231 8.96388 73.2174 8.74397 73.7922 8.5872C74.367 8.43043 75.0028 8.35205 75.6995 8.35205C76.2243 8.35205 76.7185 8.39124 77.1801 8.46963C77.6417 8.54801 78.0424 8.66559 78.3842 8.82018C78.726 8.97695 78.9939 9.17944 79.1942 9.42766C79.3923 9.67588 79.4925 9.96982 79.4925 10.3117C79.4925 10.6383 79.4315 10.9191 79.3118 11.1521C79.192 11.3873 79.0374 11.5811 78.8545 11.7378C78.7413 11.666 78.5693 11.5919 78.3428 11.5136C78.1164 11.4352 77.866 11.3633 77.5982 11.3002C77.3282 11.237 77.056 11.1826 76.7773 11.1412C76.5008 11.0977 76.2482 11.0781 76.0218 11.0781C75.5537 11.0781 75.19 11.1303 74.9353 11.237C74.6805 11.3437 74.5521 11.5114 74.5521 11.7378C74.5521 11.8946 74.6239 12.0231 74.7655 12.121C74.907 12.2212 75.177 12.3126 75.5754 12.3976L76.2352 12.5456C77.5982 12.8592 78.5671 13.2881 79.1441 13.8346C79.7124 14.3833 79.9998 15.0888 79.9998 15.9553Z" fill="#30455C"/>
</g>
<defs>
<clipPath id="clip0">
<rect width="80" height="23.2867" fill="white"/>
</clipPath>
</defs>
</svg>
